Land_normalized_Motion_pl13
version=1
nRows=12
nColumns=43
inDegrees=yes
endheader
time		pelvis_tilt		pelvis_list		pelvis_rotation		pelvis_tx		pelvis_ty		pelvis_tz		hip_flexion_r		hip_adduction_r		hip_rotation_r		knee_angle_r		ankle_angle_r		subtalar_angle_r		mtp_angle_r		hip_flexion_l		hip_adduction_l		hip_rotation_l		knee_angle_l		ankle_angle_l		subtalar_angle_l		mtp_angle_l		lumbar_extension		lumbar_bending		lumbar_rotation		neck_flexion		neck_lateral_bending		neck_rotation		arm_flex_r		arm_add_r		arm_rot_r		elbow_flex_r		pro_sup_r		wrist_flex_r		wrist_dev_r		hand_finger_flex_r		arm_flex_l		arm_add_l		arm_rot_l		elbow_flex_l		pro_sup_l		wrist_flex_l		wrist_dev_l		hand_finger_flex_l		
1.074167		0.913089		9.210532		83.032616		-0.008754		0.645175		0.497130		67.365547		4.040784		2.297289		-107.265834		6.424920		2.908115		35.137451		61.987309		-8.200416		0.740502		-110.098354		10.758045		9.202716		31.977299		-58.609838		-2.660396		0.556033		4.263567		-2.001195		3.933007		-0.348926		-43.110184		-19.287029		80.506277		116.545032		-11.190573		-0.924867		28.288973		-17.659191		-29.396187		-34.132311		76.020020		98.334083		-13.816384		-6.148164		23.910379		
1.077399		0.965592		9.589838		82.935884		-0.008458		0.639246		0.496004		67.792456		4.070209		2.412656		-108.455256		6.470139		3.557825		35.946217		62.374593		-8.397391		0.879051		-111.330959		10.952097		9.538730		32.608665		-59.836099		-2.797315		0.490036		5.341599		-1.879577		4.014122		3.278318		-43.895751		-16.561224		79.784399		117.299227		-11.193867		-0.919874		28.478393		-15.383786		-30.436937		-33.000241		75.908912		98.579848		-14.141895		-6.102331		24.860559		
1.080631		0.932383		9.930625		82.854131		-0.008248		0.633362		0.494810		68.229824		4.012111		2.545704		-109.609154		6.625058		4.116308		36.678294		62.772262		-8.531947		0.940961		-112.514782		11.151708		9.828838		33.280384		-60.960843		-2.972498		0.301936		6.297129		-1.742019		4.191973		7.009221		-44.599564		-13.630492		79.053815		118.119774		-11.193546		-0.826616		28.554760		-13.184832		-31.470329		-31.895095		75.836295		99.027634		-14.532677		-6.031575		26.260111		
1.083864		0.817392		10.187870		82.803083		-0.008144		0.627381		0.493570		68.749232		3.884085		2.689240		-110.745349		6.796327		4.490701		37.322285		63.237470		-8.609027		0.906209		-113.649292		11.300279		10.013114		33.957343		-61.964235		-3.178257		0.105814		7.245020		-1.536828		4.383074		10.564792		-45.245089		-10.811153		78.431418		118.825513		-11.153112		-0.707635		28.601823		-10.949810		-32.581177		-30.639201		75.773514		99.582978		-14.844726		-5.899357		27.907719		
1.087096		0.670125		10.439738		82.754115		-0.008237		0.621708		0.492331		69.217246		3.705100		2.866436		-111.800289		7.085976		5.038889		37.899435		63.648228		-8.702104		0.762884		-114.708893		11.470849		10.183993		34.634316		-62.896204		-3.344641		-0.294500		7.907654		-1.473055		4.677230		14.568804		-45.699833		-7.505835		77.636788		119.643536		-11.306815		-0.345958		28.417111		-8.826838		-33.545911		-29.640504		75.697034		100.533653		-15.308243		-5.607990		30.006905		
1.090328		0.503859		10.575258		82.758696		-0.008379		0.615900		0.491091		69.813129		3.487396		2.978567		-112.846120		7.250323		5.231117		38.128226		64.200464		-8.791351		0.601296		-115.734323		11.522185		10.293958		34.919897		-63.648936		-3.482994		-0.327428		8.391840		-1.438277		4.566195		17.739637		-46.124310		-5.208268		77.144692		120.142065		-11.047324		-0.210736		28.368729		-6.169997		-34.722966		-27.855771		75.353505		101.270592		-15.102687		-5.212996		30.945370		
1.093561		0.317367		10.636900		82.816969		-0.008640		0.610137		0.489888		70.472775		3.154933		3.048052		-113.856129		7.526074		5.600015		38.408233		64.799360		-8.884292		0.394716		-116.702080		11.620579		10.387892		35.274809		-64.238876		-3.548882		-0.578415		8.556094		-1.534136		4.609503		21.354521		-46.327825		-2.375473		76.408705		120.710687		-11.110425		0.168679		28.188782		-3.611110		-35.699780		-26.382191		74.981718		102.405042		-15.070700		-4.610733		32.121224		
1.096793		0.165357		10.506041		82.980693		-0.009041		0.603998		0.488785		71.350981		2.719357		2.986601		-114.861743		7.809904		5.953041		38.737548		65.666821		-8.938268		0.275503		-117.677471		11.681013		10.424563		35.840855		-64.665025		-3.481449		-1.067695		9.040435		-1.507125		5.036477		25.284890		-46.405025		1.055497		75.607241		120.870015		-11.795741		0.638878		28.020649		-1.452694		-36.614781		-25.373828		74.886197		104.054132		-15.194889		-3.923594		33.579783		
1.100025		-0.000552		10.386645		83.162873		-0.009446		0.598023		0.487735		72.215751		2.278449		2.923621		-115.848948		7.979078		6.066062		38.898782		66.487161		-9.030600		0.094151		-118.610153		11.745022		10.524251		36.168990		-65.064787		-3.416218		-1.268027		9.377524		-1.523323		5.193971		28.566160		-46.401944		3.437954		75.010528		121.087156		-11.851332		0.809561		28.047366		1.233927		-37.586535		-23.708333		74.500905		105.110978		-14.967716		-3.389003		34.225714		
1.103258		-0.025872		10.061903		83.476192		-0.010240		0.591620		0.486672		73.272799		1.690822		2.638432		-116.808501		8.169327		6.301745		39.032419		67.609349		-9.073992		0.092693		-119.582050		11.827198		10.583399		36.562522		-65.130246		-3.070581		-1.402604		9.182675		-1.761079		5.189225		31.919455		-46.234054		6.003702		74.208746		121.141841		-12.417912		1.074896		28.012061		3.958928		-38.260361		-22.086443		74.022995		106.443403		-15.091061		-2.625683		34.206633		
1.106490		0.006873		9.701514		83.786721		-0.010996		0.585185		0.485675		74.352185		1.128853		2.284105		-117.741145		8.354352		6.395530		39.123149		68.773276		-9.149793		0.147578		-120.547724		11.919031		10.626850		36.966614		-65.220815		-2.701837		-1.485934		9.388385		-1.890402		5.327598		35.103818		-46.067127		8.406834		73.561608		121.033697		-13.079586		1.234028		28.005692		6.558775		-38.971646		-20.466959		73.742084		107.658148		-15.183725		-2.023027		33.920708		
1.109722		0.018185		9.365547		84.038447		-0.011528		0.578873		0.484691		75.400984		0.653819		1.975416		-118.659111		8.582338		6.386029		39.178661		69.856973		-9.297546		0.129486		-121.485459		12.070203		10.640103		37.220709		-65.389950		-2.427408		-1.513873		9.956587		-1.951179		5.478590		37.959350		-45.812570		10.227643		73.154790		121.075253		-13.368395		1.251788		27.983644		9.120067		-39.764592		-18.765399		73.607703		108.546534		-15.111419		-1.640804		33.669432		
